<svg width="32" height="33" viewBox="0 0 32 33" fill="none" xmlns="http://www.w3.org/2000/svg">
<path d="M15.929 9.25C17.1716 9.25 18.179 8.24264 18.179 7C18.179 5.75736 17.1716 4.75 15.929 4.75C14.6864 4.75 13.679 5.75736 13.679 7C13.679 8.24264 14.6864 9.25 15.929 9.25Z" stroke="#3A3A3A" stroke-width="1.5" stroke-linecap="round" stroke-linejoin="round"/>
<path d="M15.929 9.25V27.25" stroke="#3A3A3A" stroke-width="1.5" stroke-linecap="round" stroke-linejoin="round"/>
<path d="M12.179 13.75H19.679" stroke="#3A3A3A" stroke-width="1.5" stroke-linecap="round" stroke-linejoin="round"/>
<path d="M9.179 18.25H7.25C7.1198 18.25 6.99185 18.2839 6.87872 18.3483C6.76559 18.4128 6.67118 18.5056 6.60479 18.6176C6.5384 18.7296 6.50231 18.8569 6.50007 18.9871C6.49782 19.1173 6.52951 19.2458 6.592 19.36C7.48821 21.0604 8.83123 22.4841 10.4765 23.4779C12.1217 24.4718 14.0069 24.998 15.929 25" stroke="#3A3A3A" stroke-width="1.5" stroke-linecap="round" stroke-linejoin="round"/>
<path d="M22.679 18.25H24.608C24.7382 18.25 24.8662 18.2839 24.9793 18.3483C25.0924 18.4128 25.1868 18.5056 25.2532 18.6176C25.3196 18.7296 25.3557 18.8569 25.3579 18.9871C25.3602 19.1173 25.3285 19.2458 25.266 19.36C24.3698 21.0604 23.0268 22.4841 21.3815 23.4779C19.7363 24.4718 17.8511 24.998 15.929 25" stroke="#3A3A3A" stroke-width="1.5" stroke-linecap="round" stroke-linejoin="round"/>
</svg>
