<svg width="32" height="32" viewBox="0 0 32 32" fill="none" xmlns="http://www.w3.org/2000/svg"><rect y="10" width="13" height="1" rx=".5" fill="currentColor"/><rect y="13" width="13" height="1" rx=".5" fill="currentColor"/><rect y="16" width="13" height="1" rx=".5" fill="currentColor"/><rect y="19" width="13" height="1" rx=".5" fill="currentColor"/><rect y="22" width="6" height="1" rx=".5" fill="currentColor"/><rect x="21" y="19" width="11" height="1" rx=".5" fill="currentColor"/><rect x="19" y="19" width="1" height="1" rx=".5" fill="currentColor"/><rect x="21" y="22" width="11" height="1" rx=".5" fill="currentColor"/><rect x="19" y="22" width="1" height="1" rx=".5" fill="currentColor"/><rect x="21" y="16" width="11" height="1" rx=".5" fill="currentColor"/><rect x="19" y="16" width="1" height="1" rx=".5" fill="currentColor"/><rect x="21" y="13" width="11" height="1" rx=".5" fill="currentColor"/><rect x="19" y="13" width="1" height="1" rx=".5" fill="currentColor"/><rect x="21" y="10" width="11" height="1" rx=".5" fill="currentColor"/><rect x="19" y="10" width="1" height="1" rx=".5" fill="currentColor"/></svg>
