<svg width="32" height="32" viewBox="0 0 32 32" fill="none" xmlns="http://www.w3.org/2000/svg">
<rect y="15" width="32" height="17" rx="1" fill="#3A3A3A"/>
<rect x="5" y="20" width="22" height="1" rx="0.5" fill="white"/>
<rect x="5" y="23" width="22" height="1" rx="0.5" fill="white"/>
<rect x="9" y="26" width="14" height="1" rx="0.5" fill="white"/>
<path d="M12 6.38462C12 6 12.1359 5.67692 12.4078 5.41538C12.6947 5.13846 13.0496 5 13.4725 5C13.9407 5 14.3333 5.16923 14.6505 5.50769C14.9676 5.84615 15.1262 6.33077 15.1262 6.96154C15.1262 8.19231 14.8166 9.14615 14.1974 9.82308C13.5782 10.5 12.8835 10.8923 12.1133 11V9.91538C12.5965 9.80769 12.9968 9.53846 13.3139 9.10769C13.6311 8.66154 13.7972 8.18462 13.8123 7.67692C13.6915 7.75385 13.5405 7.79231 13.3592 7.79231C12.9666 7.79231 12.6419 7.66923 12.3851 7.42308C12.1284 7.16154 12 6.81538 12 6.38462ZM15.8738 6.38462C15.8738 6 16.0097 5.67692 16.2816 5.41538C16.5685 5.13846 16.9234 5 17.3463 5C17.8145 5 18.2071 5.16923 18.5243 5.50769C18.8414 5.84615 19 6.33077 19 6.96154C19 8.19231 18.6904 9.14615 18.0712 9.82308C17.452 10.5 16.7573 10.8923 15.9871 11V9.91538C16.4703 9.80769 16.8706 9.53846 17.1877 9.10769C17.5049 8.66154 17.671 8.18462 17.6861 7.67692C17.5804 7.75385 17.4293 7.79231 17.233 7.79231C16.8403 7.79231 16.5156 7.66923 16.2589 7.42308C16.0022 7.16154 15.8738 6.81538 15.8738 6.38462Z" fill="#3A3A3A"/>
</svg>
