<svg width="20" height="20" viewBox="0 0 20 20" fill="none" style="fill: none !important" xmlns="http://www.w3.org/2000/svg"><path d="M18.75 2.084H1.25a.833.833 0 00-.833.833v15.834c0 .46.373.833.833.833h17.5c.46 0 .833-.373.833-.833V2.917a.833.833 0 00-.833-.833zM4.583.417v4.167M15.417.417v4.167M.417 6.25h19.166M5.417 15.834h4.166" stroke="currentColor" stroke-linecap="round" stroke-linejoin="round"/><path d="M7.5 15.833v-6.25a.417.417 0 00-.677-.326l-1.406 1.126M12.917 15.833l2.442-6.046a.39.39 0 00-.004-.416.455.455 0 00-.387-.204h-3.301a.417.417 0 00-.417.416v.834" stroke="currentColor" stroke-linecap="round" stroke-linejoin="round"/></svg>
