<svg width="32" height="32" viewBox="0 0 32 32" fill="none" xmlns="http://www.w3.org/2000/svg">
<rect x="1.55689" y="10" width="7.51612" height="1" rx="0.5" fill="#3A3A3A"/>
<rect x="1.55689" y="13" width="7.51612" height="1" rx="0.5" fill="#3A3A3A"/>
<rect x="12.6627" y="19" width="14.6109" height="1" rx="0.5" fill="#3A3A3A"/>
<rect x="12.6627" y="22" width="14.6109" height="1" rx="0.5" fill="#3A3A3A"/>
<rect x="12.6627" y="16" width="14.6109" height="1" rx="0.5" fill="#3A3A3A"/>
<rect x="12.6627" y="13" width="14.6109" height="1" rx="0.5" fill="#3A3A3A"/>
<rect x="12.6627" y="10" width="14.6109" height="1" rx="0.5" fill="#3A3A3A"/>
<rect x="29.5608" y="19" width="1" height="1" rx="0.5" fill="#3A3A3A"/>
<rect x="29.5608" y="22" width="1" height="1" rx="0.5" fill="#3A3A3A"/>
<rect x="29.5608" y="16" width="1" height="1" rx="0.5" fill="#3A3A3A"/>
<rect x="29.5608" y="13" width="1" height="1" rx="0.5" fill="#3A3A3A"/>
<rect x="29.5608" y="10" width="1" height="1" rx="0.5" fill="#3A3A3A"/>
</svg>
