<svg width="33" height="33" viewBox="0 0 33 33" fill="none" xmlns="http://www.w3.org/2000/svg">
<g clip-path="url(#clip0_1088_7921)">
<rect x="0.52832" y="12.5" width="9" height="12" rx="1" fill="#3A3A3A"/>
<rect x="2.52832" y="19.5" width="5" height="1" rx="0.5" fill="white"/>
<rect x="3.52832" y="14.5" width="3" height="3" rx="1.5" fill="white"/>
<rect x="11.5283" y="12.5" width="9" height="12" rx="1" fill="#3A3A3A"/>
<rect x="13.5283" y="19.5" width="5" height="1" rx="0.5" fill="white"/>
<rect x="14.5283" y="14.5" width="3" height="3" rx="1.5" fill="white"/>
<rect x="22.5283" y="12.5" width="9" height="12" rx="1" fill="#3A3A3A"/>
<rect x="24.5283" y="19.5" width="5" height="1" rx="0.5" fill="white"/>
<rect x="2.52832" y="21.5" width="5" height="1" rx="0.5" fill="white"/>
<rect x="13.5283" y="21.5" width="5" height="1" rx="0.5" fill="white"/>
<rect x="24.5283" y="21.5" width="5" height="1" rx="0.5" fill="white"/>
<rect x="25.5283" y="14.5" width="3" height="3" rx="1.5" fill="white"/>
<rect x="0.52832" y="7.5" width="9" height="1" rx="0.5" fill="#3A3A3A"/>
</g>
<defs>
<clipPath id="clip0_1088_7921">
<rect width="32" height="32" fill="white" transform="translate(0.52832 0.5)"/>
</clipPath>
</defs>
</svg>
