<svg width="32" height="33" viewBox="0 0 32 33" fill="none" xmlns="http://www.w3.org/2000/svg">
<rect y="12.9945" width="9" height="12" rx="1" fill="#3A3A3A"/>
<rect x="2" y="19.9945" width="5" height="1" rx="0.5" fill="white"/>
<rect x="11" y="12.9945" width="9" height="12" rx="1" fill="#3A3A3A"/>
<rect x="13" y="19.9945" width="5" height="1" rx="0.5" fill="white"/>
<rect x="22" y="12.9945" width="9" height="12" rx="1" fill="#3A3A3A"/>
<rect x="24" y="19.9945" width="5" height="1" rx="0.5" fill="white"/>
<rect x="2" y="21.9945" width="5" height="1" rx="0.5" fill="white"/>
<rect x="13" y="21.9945" width="5" height="1" rx="0.5" fill="white"/>
<rect x="24" y="21.9945" width="5" height="1" rx="0.5" fill="white"/>
<rect y="7.99451" width="9" height="1" rx="0.5" fill="#3A3A3A"/>
<path d="M5.0229 15.0854V17.9945H4.40785V15.6692H4.3908L3.72461 16.0868V15.5414L4.44478 15.0854H5.0229Z" fill="white"/>
<path d="M14.476 17.9945V17.5513L15.5115 16.5925C15.5996 16.5073 15.6735 16.4306 15.7331 16.3624C15.7937 16.2942 15.8397 16.2275 15.8709 16.1621C15.9022 16.0958 15.9178 16.0243 15.9178 15.9476C15.9178 15.8624 15.8984 15.789 15.8596 15.7275C15.8207 15.665 15.7677 15.6171 15.7005 15.584C15.6332 15.5499 15.557 15.5329 15.4718 15.5329C15.3828 15.5329 15.3051 15.5509 15.2388 15.5868C15.1725 15.6228 15.1214 15.6744 15.0854 15.7417C15.0494 15.8089 15.0314 15.8889 15.0314 15.9817H14.4476C14.4476 15.7914 14.4907 15.6261 14.5769 15.486C14.6631 15.3458 14.7838 15.2374 14.9391 15.1607C15.0944 15.084 15.2734 15.0456 15.476 15.0456C15.6844 15.0456 15.8657 15.0826 16.0201 15.1564C16.1754 15.2294 16.2961 15.3307 16.3823 15.4604C16.4685 15.5902 16.5115 15.7388 16.5115 15.9064C16.5115 16.0163 16.4898 16.1247 16.4462 16.2317C16.4036 16.3387 16.3274 16.4576 16.2175 16.5883C16.1077 16.718 15.9528 16.8738 15.753 17.0556L15.3283 17.4718V17.4917H16.5499V17.9945H14.476Z" fill="white"/>
<path d="M26.4927 18.0343C26.2806 18.0343 26.0917 17.9978 25.926 17.9249C25.7612 17.851 25.631 17.7497 25.5353 17.6209C25.4406 17.4912 25.3919 17.3416 25.389 17.1721H26.0083C26.0121 17.2431 26.0353 17.3056 26.0779 17.3596C26.1215 17.4126 26.1793 17.4538 26.2512 17.4831C26.3232 17.5125 26.4042 17.5272 26.4941 17.5272C26.5879 17.5272 26.6708 17.5106 26.7427 17.4775C26.8147 17.4443 26.871 17.3984 26.9118 17.3397C26.9525 17.281 26.9728 17.2133 26.9728 17.1366C26.9728 17.0589 26.9511 16.9902 26.9075 16.9306C26.8649 16.87 26.8033 16.8226 26.7228 16.7885C26.6433 16.7545 26.5486 16.7374 26.4387 16.7374H26.1674V16.2857H26.4387C26.5315 16.2857 26.6135 16.2696 26.6845 16.2374C26.7565 16.2052 26.8123 16.1607 26.8521 16.1039C26.8919 16.0461 26.9118 15.9789 26.9118 15.9022C26.9118 15.8293 26.8942 15.7653 26.8592 15.7104C26.8251 15.6545 26.7768 15.611 26.7143 15.5797C26.6528 15.5485 26.5808 15.5329 26.4984 15.5329C26.4151 15.5329 26.3388 15.548 26.2697 15.5783C26.2006 15.6077 26.1452 15.6498 26.1035 15.7047C26.0618 15.7597 26.0396 15.8241 26.0368 15.8979H25.4473C25.4501 15.7303 25.4979 15.5826 25.5907 15.4547C25.6835 15.3269 25.8085 15.227 25.9657 15.155C26.1239 15.0821 26.3024 15.0456 26.5012 15.0456C26.702 15.0456 26.8777 15.0821 27.0282 15.155C27.1788 15.2279 27.2958 15.3264 27.3791 15.4505C27.4634 15.5736 27.505 15.7118 27.5041 15.8652C27.505 16.0281 27.4544 16.164 27.3521 16.2729C27.2508 16.3818 27.1187 16.4509 26.9558 16.4803V16.503C27.1698 16.5305 27.3327 16.6048 27.4444 16.726C27.5571 16.8463 27.613 16.9969 27.612 17.1777C27.613 17.3435 27.5652 17.4907 27.4686 17.6195C27.3729 17.7483 27.2408 17.8496 27.0723 17.9235C26.9037 17.9973 26.7105 18.0343 26.4927 18.0343Z" fill="white"/>
</svg>
