<svg width="33" height="32" viewBox="0 0 33 32" fill="none" xmlns="http://www.w3.org/2000/svg">
<g clip-path="url(#clip0_2017_6232)">
<rect x="0.438904" y="12" width="9" height="12" rx="1" fill="#3A3A3A"/>
<rect x="2.4389" y="19" width="5" height="1" rx="0.5" fill="white"/>
<rect x="3.4389" y="14" width="3" height="3" rx="1.5" fill="white"/>
<rect x="2.4389" y="21" width="5" height="1" rx="0.5" fill="white"/>
<rect x="0.438904" y="7" width="6" height="1" rx="0.5" fill="#3A3A3A"/>
<rect x="8.77223" y="7" width="6" height="1" rx="0.5" fill="#C1C1C1"/>
<rect x="17.1056" y="7" width="6" height="1" rx="0.5" fill="#C1C1C1"/>
<rect x="25.4389" y="7" width="6" height="1" rx="0.5" fill="#C1C1C1"/>
<rect x="13.7059" y="17.5" width="17.733" height="1" rx="0.5" fill="#3A3A3A"/>
<rect x="13.7059" y="14.5" width="17.733" height="1" rx="0.5" fill="#3A3A3A"/>
<rect x="13.7059" y="20.5" width="8.44426" height="1" rx="0.5" fill="#3A3A3A"/>
</g>
<defs>
<clipPath id="clip0_2017_6232">
<rect width="32" height="32" fill="white" transform="translate(0.438904)"/>
</clipPath>
</defs>
</svg>
