<svg width="32" height="32" viewBox="0 0 32 32" fill="none" xmlns="http://www.w3.org/2000/svg"><rect y="15" width="32" height="17" rx="1" fill="currentColor"/><rect x="5" y="20" width="22" height="1" rx=".5" fill="#fff"/><rect x="5" y="23" width="22" height="1" rx=".5" fill="#fff"/><rect x="9" y="26" width="14" height="1" rx=".5" fill="#fff"/><path d="M12 6.385c0-.385.136-.708.408-.97A1.474 1.474 0 0113.473 5c.468 0 .86.17 1.177.508.318.338.476.823.476 1.454 0 1.23-.31 2.184-.929 2.861s-1.313 1.07-2.084 1.177V9.915c.484-.107.884-.377 1.2-.807a2.56 2.56 0 00.5-1.431.828.828 0 01-.454.115c-.392 0-.717-.123-.974-.369-.257-.261-.385-.608-.385-1.038zm3.874 0c0-.385.136-.708.408-.97A1.474 1.474 0 0117.346 5c.468 0 .861.17 1.178.508.317.338.476.823.476 1.454 0 1.23-.31 2.184-.929 2.861s-1.314 1.07-2.084 1.177V9.915c.483-.107.884-.377 1.2-.807a2.56 2.56 0 00.5-1.431c-.107.077-.258.115-.454.115-.393 0-.717-.123-.974-.369-.257-.261-.385-.608-.385-1.038z" fill="currentColor"/></svg>
