<svg width="32" height="32" viewBox="0 0 32 32" fill="none" xmlns="http://www.w3.org/2000/svg"><rect x="9" y="9" width="5" height="7" rx="1" fill="currentColor"/><rect y="6" width="6" height="1" rx=".5" fill="currentColor"/><rect y="9" width="6" height="1" rx=".5" fill="currentColor"/><rect y="12" width="6" height="1" rx=".5" fill="currentColor"/><rect y="15" width="6" height="1" rx=".5" fill="currentColor"/><rect y="18" width="6" height="1" rx=".5" fill="currentColor"/><rect y="21" width="6" height="1" rx=".5" fill="currentColor"/><rect x="15" y="9" width="5" height="7" rx="1" fill="currentColor"/><rect x="21" y="9" width="5" height="7" rx="1" fill="currentColor"/><rect x="27" y="9" width="5" height="7" rx="1" fill="currentColor"/><rect x="9" y="18" width="5" height="7" rx="1" fill="currentColor"/><rect x="15" y="18" width="5" height="7" rx="1" fill="currentColor"/><rect x="21" y="18" width="5" height="7" rx="1" fill="currentColor"/><rect x="27" y="18" width="5" height="7" rx="1" fill="currentColor"/><rect x="9" y="6" width="23" height="1" rx=".5" fill="currentColor"/></svg>
