<svg width="33" height="33" viewBox="0 0 33 33" fill="none" xmlns="http://www.w3.org/2000/svg">
<rect x="4.12843" y="13.5" width="13.4603" height="1" rx="0.5" fill="#BABABA"/>
<rect x="19.2682" y="13.5" width="4.3005" height="1" rx="0.5" fill="#BABABA"/>
<rect x="24.5711" y="13.5" width="4.3005" height="1" rx="0.5" fill="#BABABA"/>
<rect x="4.12843" y="10.5" width="13.4603" height="1" rx="0.5" fill="#3A3A3A"/>
<rect x="19.2682" y="10.5" width="4.3005" height="1" rx="0.5" fill="#3A3A3A"/>
<rect x="24.5711" y="10.5" width="4.3005" height="1" rx="0.5" fill="#3A3A3A"/>
<rect x="4.12843" y="16.5" width="13.4603" height="1" rx="0.5" fill="#3A3A3A"/>
<rect x="19.2682" y="16.5" width="4.3005" height="1" rx="0.5" fill="#3A3A3A"/>
<rect x="24.5711" y="16.5" width="4.3005" height="1" rx="0.5" fill="#3A3A3A"/>
<rect x="4.12843" y="19.5" width="13.4603" height="1" rx="0.5" fill="#BABABA"/>
<rect x="19.2682" y="19.5" width="4.3005" height="1" rx="0.5" fill="#BABABA"/>
<rect x="24.5711" y="19.5" width="4.3005" height="1" rx="0.5" fill="#BABABA"/>
<rect x="4.12843" y="22.5" width="13.4603" height="1" rx="0.5" fill="#3A3A3A"/>
<rect x="19.2682" y="22.5" width="4.3005" height="1" rx="0.5" fill="#3A3A3A"/>
<rect x="24.5711" y="22.5" width="4.3005" height="1" rx="0.5" fill="#3A3A3A"/>
</svg>
