<svg width="32" height="33" viewBox="0 0 32 33" fill="none" xmlns="http://www.w3.org/2000/svg"><rect y="12.5" width="9" height="12" rx="1" fill="#3A3A3A"/><rect x="2" y="19.5" width="5" height="1" rx=".5" fill="#fff"/><rect x="3" y="14.5" width="3" height="3" rx="1.5" fill="#fff"/><rect x="11" y="12.5" width="9" height="12" rx="1" fill="#3A3A3A"/><rect x="13" y="19.5" width="5" height="1" rx=".5" fill="#fff"/><rect x="14" y="14.5" width="3" height="3" rx="1.5" fill="#fff"/><rect x="22" y="12.5" width="9" height="12" rx="1" fill="#3A3A3A"/><rect x="24" y="19.5" width="5" height="1" rx=".5" fill="#fff"/><rect x="2" y="21.5" width="5" height="1" rx=".5" fill="#fff"/><rect x="13" y="21.5" width="5" height="1" rx=".5" fill="#fff"/><rect x="24" y="21.5" width="5" height="1" rx=".5" fill="#fff"/><rect x="25" y="14.5" width="3" height="3" rx="1.5" fill="#fff"/><rect y="7.5" width="9" height="1" rx=".5" fill="#3A3A3A"/></svg>
