<svg aria-hidden="true" xmlns="http://www.w3.org/2000/svg" width="18" height="18" viewBox="0 0 18 18"><path fill="currentColor" d="M8.9.216a8.705 8.705 0 0 0-4.467 1.193 8.788 8.788 0 0 0-3.24 3.24A8.715 8.715 0 0 0 0 9.11c0 1.94.566 3.683 1.698 5.233 1.132 1.55 2.594 2.62 4.387 3.215.208.04.363.01.463-.08.1-.092.15-.21.15-.35 0-.03 0-.24-.005-.63-.004-.39-.006-.73-.006-1.024l-.266.045c-.17.03-.38.04-.64.04s-.53-.03-.8-.08-.53-.17-.77-.35c-.24-.18-.41-.42-.51-.72l-.11-.27c-.07-.18-.2-.38-.36-.59-.17-.22-.33-.37-.5-.44l-.08-.06a1.233 1.233 0 0 1-.15-.14.708.708 0 0 1-.104-.17c-.022-.058-.003-.1.06-.137.063-.04.175-.055.337-.055l.23.04c.16.03.35.125.58.28.23.156.417.356.564.604.176.316.39.56.64.724.25.165.504.25.76.25s.475-.02.66-.06c.185-.038.36-.096.52-.17.08-.52.27-.92.57-1.198a6.864 6.864 0 0 1-1.19-.21c-.35-.09-.71-.24-1.09-.45a3.19 3.19 0 0 1-.93-.773c-.246-.31-.45-.717-.61-1.22-.16-.503-.235-1.08-.235-1.74 0-.92.305-1.714.916-2.386-.285-.703-.254-1.49.09-2.364.22-.07.548-.016.988.158.44.174.766.323.97.447.206.12.37.225.494.31.718-.2 1.46-.3 2.22-.3.77 0 1.51.1 2.23.3l.44-.28c.3-.185.657-.355 1.066-.51.41-.154.723-.196.94-.13.35.876.38 1.664.092 2.368.61.67.914 1.462.914 2.38 0 .655-.08 1.236-.234 1.74-.16.51-.36.915-.61 1.22a3.1 3.1 0 0 1-.94.77c-.373.21-.736.36-1.09.455-.35.09-.745.16-1.186.21.4.343.602.892.602 1.64 0 .474-.003.993-.007 1.56l-.01.888c0 .14.05.256.15.35.1.093.256.12.464.08 1.79-.59 3.254-1.665 4.39-3.214 1.13-1.55 1.7-3.296 1.7-5.235 0-1.614-.4-3.104-1.2-4.47a8.985 8.985 0 0 0-3.24-3.24C12 .616 10.51.22 8.9.22zM3.374 13c.023-.055-.004-.1-.08-.14-.08-.023-.13-.015-.152.023-.022.055.005.1.082.14.07.046.12.038.15-.024zm.36.393c.053-.038.045-.1-.024-.185-.078-.07-.14-.08-.187-.035-.054.04-.046.1.024.186.077.07.14.08.185.03zm.347.522c.07-.054.07-.128 0-.22-.06-.1-.12-.124-.19-.07-.07.04-.07.108 0 .21.07.1.14.126.2.08zm.49.487c.06-.062.05-.136-.04-.22-.09-.093-.17-.105-.23-.035-.07.062-.05.135.05.22.09.093.17.104.23.035zm.66.29c.03-.086-.02-.147-.15-.186-.11-.03-.19-.004-.22.08-.03.086.02.144.15.175.12.05.19.03.22-.07zm.73.057c0-.1-.06-.15-.19-.13-.12 0-.18.04-.18.12 0 .1.07.14.2.12.13 0 .19-.05.19-.13zm.68-.12c-.01-.09-.08-.12-.21-.11-.12.02-.17.08-.16.17.02.09.09.12.21.09.13-.03.18-.09.17-.17z"/></svg>
