<svg aria-hidden="true" xmlns="http://www.w3.org/2000/svg" viewBox="0 0 24 24"><path fill="none" stroke="currentColor" stroke-linecap="round" stroke-linejoin="round" stroke-width="1.2" d="M12 .5C5.6.5.5 5.6.5 12c0 5 3.2 9.4 7.9 10.9.6.1.8-.2.8-.5v-2c-3.2.7-3.9-1.5-3.9-1.5-.3-.7-.7-1.3-1.3-1.7-1-.7.1-.7.1-.7.7.1 1.4.5 1.8 1.2.7 1.2 2.1 1.6 3.3 1 0 0 0 0 0 0 .1-.6.3-1.1.7-1.5-2.6-.3-5.2-1.3-5.2-5.7 0-1.1.4-2.2 1.2-3.1-.4-1-.3-2.1.1-3 0 0 1-.3 3.2 1.2 1.9-.5 3.9-.5 5.8 0 2.1-1.6 3-1.3 3-1.3.4 1 .5 2.1.1 3 .8.8 1.2 1.9 1.2 3.1 0 4.4-2.7 5.4-5.3 5.7.6.6.8 1.3.8 2.1v3.2c0 .3.2.6.8.5 6-2 9.3-8.5 7.3-14.5C21.4 3.7 17 .5 12 .5z"></path></svg>
